<svg xmlns="http://www.w3.org/2000/svg" width="840" height="180" viewBox="0 0 840 180"><defs>
  <filter id="sh" x="-20%" y="-20%" width="140%" height="160%"><feDropShadow dx="0" dy="3" stdDeviation="7" flood-color="#E7B6D5" flood-opacity="0.28"/></filter>
  <linearGradient id="card" x1="0" y1="0" x2="0" y2="1"><stop offset="0" stop-color="#FFFFFF"/><stop offset="1" stop-color="#FFFBFD"/></linearGradient><clipPath id="cbar"><rect x="552" y="64" width="256" height="13" rx="6.5"/></clipPath></defs>
  <rect x="6" y="6" width="828" height="168" rx="26" fill="url(#card)" stroke="#EFE0EE" stroke-width="2" filter="url(#sh)"/>
  <text x="32" y="46" font-size="11" letter-spacing="2.5" font-weight="700" fill="#B7ABC6">CODE CHANGED · LAST YEAR</text>

  <text x="32" y="100" font-size="40" font-weight="700" fill="#5FB98A">+909,747</text>
  <text x="34" y="124" font-size="12.5" fill="#B7ABC6">lines added</text>
  <text x="300" y="100" font-size="40" font-weight="700" fill="#E78A8A">−749,500</text>
  <text x="302" y="124" font-size="12.5" fill="#B7ABC6">lines removed</text>

  <line x1="520" y1="40" x2="520" y2="156" stroke="#EFE6F0" stroke-width="1.5"/>

  <g clip-path="url(#cbar)"><rect x="552" y="64" width="256" height="13" fill="#E78A8A"/><rect x="552" y="64" width="140.4" height="13" fill="#5FB98A"/></g>
  <circle cx="558" cy="96" r="5" fill="#5FB98A"/><text x="570" y="100" font-size="13" fill="#5E5470">additions</text>
  <circle cx="664" cy="96" r="5" fill="#E78A8A"/><text x="676" y="100" font-size="13" fill="#5E5470">deletions</text>

  <line x1="552" y1="116" x2="808" y2="116" stroke="#EFE6F0" stroke-width="1"/>
  <text x="552" y="138" font-size="13" fill="#8B8197">files changed</text><text x="808" y="138" text-anchor="end" font-size="15" font-weight="700" fill="#4A4060">15,375</text>
  <line x1="552" y1="152" x2="808" y2="152" stroke="#EFE6F0" stroke-width="1"/>
  <text x="552" y="170" font-size="13" fill="#8B8197">net change</text><text x="808" y="170" text-anchor="end" font-size="15" font-weight="700" fill="#5FB98A">+160,247</text></svg>