<svg xmlns="http://www.w3.org/2000/svg" width="840" height="228" viewBox="0 0 840 228"><defs>
  <filter id="sh" x="-20%" y="-20%" width="140%" height="160%"><feDropShadow dx="0" dy="3" stdDeviation="7" flood-color="#E7B6D5" flood-opacity="0.28"/></filter>
  <linearGradient id="card" x1="0" y1="0" x2="0" y2="1"><stop offset="0" stop-color="#FFFFFF"/><stop offset="1" stop-color="#FFFBFD"/></linearGradient>
  <linearGradient id="ag" x1="0" y1="0" x2="0" y2="1"><stop offset="0" stop-color="#E29BC2" stop-opacity="0.45"/><stop offset="1" stop-color="#E29BC2" stop-opacity="0.04"/></linearGradient></defs>
  <rect x="6" y="6" width="828" height="216" rx="26" fill="url(#card)" stroke="#EFE0EE" stroke-width="2" filter="url(#sh)"/>
  <text x="32" y="40" font-size="11" letter-spacing="2.5" font-weight="700" fill="#B7ABC6">THIS YEAR</text>
  <text x="32" y="84" font-size="40" font-weight="700" fill="#4A4060">7,880</text>
  <text x="32" y="104" font-size="12.5" fill="#B7ABC6">contributions in the last year</text>
  <line x1="40" y1="153" x2="806" y2="153" stroke="#EFE6F0" stroke-width="1" stroke-dasharray="2 4"/><line x1="40" y1="110" x2="806" y2="110" stroke="#EFE6F0" stroke-width="1" stroke-dasharray="2 4"/>
  <path d="M40.0,192.0C42.5,192.0 49.8,192.1 54.7,192.0C59.6,191.9 64.6,191.6 69.5,191.5C74.4,191.5 79.3,191.6 84.2,191.6C89.1,191.7 94.0,191.8 98.9,191.9C103.8,192.0 108.7,192.0 113.7,192.0C118.6,192.0 123.5,191.8 128.4,191.8C133.3,191.8 138.2,192.0 143.1,192.0C148.0,192.0 152.9,192.0 157.8,192.0C162.8,192.0 167.7,192.0 172.6,192.0C177.5,192.0 182.4,192.0 187.3,192.0C192.2,192.0 197.1,192.0 202.0,192.0C206.9,192.0 211.9,192.0 216.8,192.0C221.7,192.0 226.6,192.0 231.5,192.0C236.4,192.0 241.3,192.0 246.2,192.0C251.1,192.0 256.1,192.0 261.0,192.0C265.9,192.0 270.8,192.0 275.7,192.0C280.6,192.0 285.5,192.0 290.4,192.0C295.3,192.0 300.2,192.0 305.2,192.0C310.1,192.0 315.0,192.0 319.9,192.0C324.8,192.0 329.7,192.0 334.6,192.0C339.5,192.0 344.4,192.0 349.3,192.0C354.3,192.0 359.2,192.0 364.1,192.0C369.0,192.0 373.9,192.0 378.8,192.0C383.7,192.0 388.6,192.0 393.5,192.0C398.4,192.0 403.4,192.0 408.3,192.0C413.2,192.0 418.1,192.0 423.0,192.0C427.9,192.0 432.8,192.2 437.7,191.9C442.6,191.6 447.6,194.3 452.5,190.3C457.4,186.2 462.3,170.5 467.2,167.6C472.1,164.7 477.0,182.7 481.9,172.7C486.8,162.8 491.7,107.5 496.7,108.0C501.6,108.5 506.5,170.2 511.4,175.5C516.3,180.8 521.2,146.8 526.1,139.6C531.0,132.3 535.9,128.3 540.8,132.0C545.8,135.7 550.7,154.3 555.6,161.9C560.5,169.4 565.4,176.4 570.3,177.2C575.2,178.0 580.1,167.2 585.0,166.7C589.9,166.3 594.9,176.2 599.8,174.6C604.7,172.9 609.6,158.1 614.5,156.6C619.4,155.2 624.3,165.6 629.2,165.9C634.1,166.2 639.1,160.6 644.0,158.4C648.9,156.3 653.8,155.2 658.7,152.9C663.6,150.6 668.5,141.0 673.4,144.4C678.3,147.8 683.2,170.9 688.2,173.3C693.1,175.7 698.0,159.4 702.9,158.8C707.8,158.3 712.7,172.4 717.6,170.0C722.5,167.5 727.4,143.9 732.3,144.1C737.3,144.3 742.2,165.4 747.1,171.2C752.0,177.0 756.9,177.7 761.8,178.7C766.7,179.8 771.6,183.2 776.5,177.3C781.4,171.4 786.4,141.3 791.3,143.2C796.2,145.1 803.5,181.2 806.0,188.9 L806.0,196 L40.0,196 Z" fill="url(#ag)"/><path d="M40.0,192.0C42.5,192.0 49.8,192.1 54.7,192.0C59.6,191.9 64.6,191.6 69.5,191.5C74.4,191.5 79.3,191.6 84.2,191.6C89.1,191.7 94.0,191.8 98.9,191.9C103.8,192.0 108.7,192.0 113.7,192.0C118.6,192.0 123.5,191.8 128.4,191.8C133.3,191.8 138.2,192.0 143.1,192.0C148.0,192.0 152.9,192.0 157.8,192.0C162.8,192.0 167.7,192.0 172.6,192.0C177.5,192.0 182.4,192.0 187.3,192.0C192.2,192.0 197.1,192.0 202.0,192.0C206.9,192.0 211.9,192.0 216.8,192.0C221.7,192.0 226.6,192.0 231.5,192.0C236.4,192.0 241.3,192.0 246.2,192.0C251.1,192.0 256.1,192.0 261.0,192.0C265.9,192.0 270.8,192.0 275.7,192.0C280.6,192.0 285.5,192.0 290.4,192.0C295.3,192.0 300.2,192.0 305.2,192.0C310.1,192.0 315.0,192.0 319.9,192.0C324.8,192.0 329.7,192.0 334.6,192.0C339.5,192.0 344.4,192.0 349.3,192.0C354.3,192.0 359.2,192.0 364.1,192.0C369.0,192.0 373.9,192.0 378.8,192.0C383.7,192.0 388.6,192.0 393.5,192.0C398.4,192.0 403.4,192.0 408.3,192.0C413.2,192.0 418.1,192.0 423.0,192.0C427.9,192.0 432.8,192.2 437.7,191.9C442.6,191.6 447.6,194.3 452.5,190.3C457.4,186.2 462.3,170.5 467.2,167.6C472.1,164.7 477.0,182.7 481.9,172.7C486.8,162.8 491.7,107.5 496.7,108.0C501.6,108.5 506.5,170.2 511.4,175.5C516.3,180.8 521.2,146.8 526.1,139.6C531.0,132.3 535.9,128.3 540.8,132.0C545.8,135.7 550.7,154.3 555.6,161.9C560.5,169.4 565.4,176.4 570.3,177.2C575.2,178.0 580.1,167.2 585.0,166.7C589.9,166.3 594.9,176.2 599.8,174.6C604.7,172.9 609.6,158.1 614.5,156.6C619.4,155.2 624.3,165.6 629.2,165.9C634.1,166.2 639.1,160.6 644.0,158.4C648.9,156.3 653.8,155.2 658.7,152.9C663.6,150.6 668.5,141.0 673.4,144.4C678.3,147.8 683.2,170.9 688.2,173.3C693.1,175.7 698.0,159.4 702.9,158.8C707.8,158.3 712.7,172.4 717.6,170.0C722.5,167.5 727.4,143.9 732.3,144.1C737.3,144.3 742.2,165.4 747.1,171.2C752.0,177.0 756.9,177.7 761.8,178.7C766.7,179.8 771.6,183.2 776.5,177.3C781.4,171.4 786.4,141.3 791.3,143.2C796.2,145.1 803.5,181.2 806.0,188.9" fill="none" stroke="#E29BC2" stroke-width="2.5" stroke-linejoin="round"/>
  <circle cx="496.7" cy="108.0" r="4" fill="#fff" stroke="#E29BC2" stroke-width="2.5"/><text x="496.7" y="96.0" text-anchor="middle" font-size="11" font-weight="700" fill="#5E5470">busiest · spring</text>
  <text x="40" y="214" text-anchor="middle" font-size="10" fill="#B7ABC6">Oct</text><text x="168" y="214" text-anchor="middle" font-size="10" fill="#B7ABC6">Dec</text><text x="295" y="214" text-anchor="middle" font-size="10" fill="#B7ABC6">Feb</text><text x="423" y="214" text-anchor="middle" font-size="10" fill="#B7ABC6">Apr</text><text x="551" y="214" text-anchor="middle" font-size="10" fill="#B7ABC6">Jun</text><text x="678" y="214" text-anchor="middle" font-size="10" fill="#B7ABC6">Aug</text><text x="806" y="214" text-anchor="middle" font-size="10" fill="#B7ABC6">Oct</text></svg>